<svg viewBox="0 0 500 500" xmlns="http://www.w3.org/2000/svg"><g fill="none" stroke-width="2"><path d="m462.48 125.26q-.37.63-.1 1.11 18.05 32.21 25.56 68.96" stroke="#005f8d"/><path d="m487.94 195.33-71.11-70.44" stroke="#00557d"/><path d="m416.83 124.89q-9.5-11.21-22.45-14.65-5.83-1.55-18.99-1.53-129.06.16-265.32.05c-19.04-.01-35.68 12.29-40.4 30.71q-1.38 5.42-1.39 17.83-.04 91.09-.02 182.2.01 20.12 16.63 33.85" stroke="#003a55"/><path d="m84.89 373.35 111.91 111.27" stroke="#00557d"/><path d="m196.8 484.62q-.08.26-.56.15-84.69-18.46-140.52-84.74-.28-.33-.67-.17-.16.06-.34.17" stroke="#005f8d"/><path d="m416.83 124.89q1.13 2.48 2.46 4.85c3.49 6.24 5.28 12.4 5.28 19.8q-.09 91.67.02 188.3.01 6.13-.89 10.62c-3.14 15.59-15.3 27.39-30.63 31.25q-5.18 1.3-17.46 1.29-140.82-.16-265.87-.03c-6.75.01-12.97-1.63-19.05-4.8q-2.82-1.48-5.8-2.82" stroke="#001b28"/><path d="m96.5 163.27h300.18a.77.77 0 0 0 .77-.77v-11.84a15.12 14.69-0 0 0 -15.12-14.69h-271.48a15.12 14.69 0 0 0 -15.12 14.69v11.84a.77.77 0 0 0 .77.77" stroke="#806700"/><path d="m96.44 343.48c1.25 5.95 7.09 10.28 13.32 10.27q136.92-.08 272.66.07c6.03 0 11.07-2.69 13.71-8.32q1.12-2.38 1.13-11.45.03-71.49-.06-143.07 0-.49-.49-.49h-300.21q-.68 0-.68.67.15 70.3.01 143.2-.01 6.19.61 9.12" stroke="#797979"/><path d="m487.94 195.33q1.14 5.99 2.01 12.56c.28 2.09 1.05 4.15.93 6.13q-.13 2.17.43 4.19c1 3.66.54 7.34.93 11.11q1.38 13.31.57 23.95-.53 7.02-.81 12.82c-.17 3.35-1.06 6.29-1.02 9.53.02 1.82-.72 3.38-.85 5.14q-.14 1.75-.42 3.48-7.76 46.44-32.07 86.69a.86.85 38 0 1 -1.34.16q-14.65-14.81-29.43-29.12-.14-.14-.28 0l-.01.01q-.14.14 0 .28 14.81 14.74 30 29.74.25.25.07.54c-9.92 15.99-21.58 31.03-34.99 44.21q-.39.38-.92.48-.59.11-.68.76a1.12 1.08-20.1 0 1 -.28.58q-2.89 3.05-5.48 5.42-51.52 47.15-120.06 60.91-4.63.93-9.23 1.74-1.57.28-3.01.29c-2.68.01-4.99 1.04-7.64 1.05-3.86.01-7.37 1.02-11.26 1.03q-5.48.01-11.06.3c-7.53.39-14.99-.32-22.46-.3-3.63.01-6.99-1.05-10.61-1.01-2.78.04-5.23-1.06-8.05-1.02-1.93.04-3.55-.88-5.51-.97q-1.81-.08-3.87-.59-2.26-.57-4.74-.8" stroke="#004160"/><g stroke="#797979"><path d="m273.5884 221.113a13.45 13.45 0 0 0 -9.7397-16.3384l-.4653-.1178a13.45 13.45 0 0 0 -16.3385 9.7397l-27.5333 108.8105a13.45 13.45 0 0 0 9.7397 16.3384l.4653.1178a13.45 13.45 0 0 0 16.3385-9.7397z"/><path d="m160.1 271.93q18.97-14.17 39.28-29.26 4.6-3.42 5.74-8.53c2.2-9.93-7.07-18.44-16.67-16q-3 .76-7.77 4.34-26.76 20.12-50.93 37.98-6.85 5.07-6.46 12.04.37 6.61 5.46 10.42 29.04 21.74 54.76 40.8c5.42 4.01 12.87 3.66 17.76-1.07 6.23-6.01 5.21-15.8-1.43-20.75q-20.23-15.08-39.74-29.58a.25.24-45.6 0 1 0-.39"/><path d="m333.15 272.24q-19.52 14.56-39.72 29.63c-8.32 6.2-7.46 19.08 2.28 23.38q7.52 3.32 14.78-2.09 28.19-21.04 52.85-39.3c8.01-5.93 9.1-16.65.67-22.94q-24.08-17.94-54.34-40.45c-8.57-6.38-20.36-1.15-21.81 9.05q-1.1 7.79 6 13.13 19.27 14.49 39.29 29.27a.2.2 0 0 1 0 .32"/></g></g><path d="m238.89 0h15.34q60.03 2.18 110.77 30.05 42.49 23.33 72.4 59.79 12.54 15.28 25.08 35.42-.37.63-.1 1.11 18.05 32.21 25.56 68.96l-71.11-70.44q-9.5-11.21-22.45-14.65-5.83-1.55-18.99-1.53-129.06.16-265.32.05c-19.04-.01-35.68 12.29-40.4 30.71q-1.38 5.42-1.39 17.83-.04 91.09-.02 182.2.01 20.12 16.63 33.85l111.91 111.27q-.08.26-.56.15-84.69-18.46-140.52-84.74-.28-.33-.67-.17-.16.06-.34.17-15.32-20.82-25.27-39.03-27.31-50-29.44-108.64v-15.13q3.94-89.88 62.96-155.75 31.86-35.56 76.37-57.12 46.23-22.39 99.56-24.36z" fill="#0073aa"/><path d="m416.83 124.89q1.13 2.48 2.46 4.85c3.49 6.24 5.28 12.4 5.28 19.8q-.09 91.67.02 188.3.01 6.13-.89 10.62c-3.14 15.59-15.3 27.39-30.63 31.25q-5.18 1.3-17.46 1.29-140.82-.16-265.87-.03c-6.75.01-12.97-1.63-19.05-4.8q-2.82-1.48-5.8-2.82-16.62-13.73-16.63-33.85-.02-91.11.02-182.2.01-12.41 1.39-17.83c4.72-18.42 21.36-30.72 40.4-30.71q136.26.11 265.32-.05 13.16-.02 18.99 1.53 12.95 3.44 22.45 14.65zm-320.33 38.38h300.18a.77.77 0 0 0 .77-.77v-11.84a15.12 14.69-0 0 0 -15.12-14.69h-271.48a15.12 14.69 0 0 0 -15.12 14.69v11.84a.77.77 0 0 0 .77.77zm-.06 180.21c1.25 5.95 7.09 10.28 13.32 10.27q136.92-.08 272.66.07c6.03 0 11.07-2.69 13.71-8.32q1.12-2.38 1.13-11.45.03-71.49-.06-143.07 0-.49-.49-.49h-300.21q-.68 0-.68.67.15 70.3.01 143.2-.01 6.19.61 9.12z"/><path d="m416.83 124.89 71.11 70.44q1.14 5.99 2.01 12.56c.28 2.09 1.05 4.15.93 6.13q-.13 2.17.43 4.19c1 3.66.54 7.34.93 11.11q1.38 13.31.57 23.95-.53 7.02-.81 12.82c-.17 3.35-1.06 6.29-1.02 9.53.02 1.82-.72 3.38-.85 5.14q-.14 1.75-.42 3.48-7.76 46.44-32.07 86.69a.86.85 38 0 1 -1.34.16q-14.65-14.81-29.43-29.12-.14-.14-.28 0l-.01.01q-.14.14 0 .28 14.81 14.74 30 29.74.25.25.07.54c-9.92 15.99-21.58 31.03-34.99 44.21q-.39.38-.92.48-.59.11-.68.76a1.12 1.08-20.1 0 1 -.28.58q-2.89 3.05-5.48 5.42-51.52 47.15-120.06 60.91-4.63.93-9.23 1.74-1.57.28-3.01.29c-2.68.01-4.99 1.04-7.64 1.05-3.86.01-7.37 1.02-11.26 1.03q-5.48.01-11.06.3c-7.53.39-14.99-.32-22.46-.3-3.63.01-6.99-1.05-10.61-1.01-2.78.04-5.23-1.06-8.05-1.02-1.93.04-3.55-.88-5.51-.97q-1.81-.08-3.87-.59-2.26-.57-4.74-.8l-111.91-111.27q2.98 1.34 5.8 2.82c6.08 3.17 12.3 4.81 19.05 4.8q125.05-.13 265.87.03 12.28.01 17.46-1.29c15.33-3.86 27.49-15.66 30.63-31.25q.9-4.49.89-10.62-.11-96.63-.02-188.3c0-7.4-1.79-13.56-5.28-19.8q-1.33-2.37-2.46-4.85z" fill="#003650"/><path d="m462.48 125.26q35.04 56.04 37.52 122.63v14.6q-1.91 52.74-24.08 98.22-21.57 44.26-56.75 75.7-66.75 59.68-158.04 63.59h-15.37q-58.67-2.18-109.26-29.27-48.38-25.9-81.79-70.7.18-.11.34-.17.39-.16.67.17 55.83 66.28 140.52 84.74.48.11.56-.15 2.48.23 4.74.8 2.06.51 3.87.59c1.96.09 3.58 1.01 5.51.97 2.82-.04 5.27 1.06 8.05 1.02 3.62-.04 6.98 1.02 10.61 1.01 7.47-.02 14.93.69 22.46.3q5.58-.29 11.06-.3c3.89-.01 7.4-1.02 11.26-1.03 2.65-.01 4.96-1.04 7.64-1.05q1.44-.01 3.01-.29 4.6-.81 9.23-1.74 68.54-13.76 120.06-60.91 2.59-2.37 5.48-5.42a1.12 1.08-20.1 0 0 .28-.58q.09-.65.68-.76.53-.1.92-.48c13.41-13.18 25.07-28.22 34.99-44.21q.18-.29-.07-.54-15.19-15-30-29.74-.14-.14 0-.28l.01-.01q.14-.14.28 0 14.78 14.31 29.43 29.12a.86.85 38 0 0 1.34-.16q24.31-40.25 32.07-86.69.28-1.73.42-3.48c.13-1.76.87-3.32.85-5.14-.04-3.24.85-6.18 1.02-9.53q.28-5.8.81-12.82.81-10.64-.57-23.95c-.39-3.77.07-7.45-.93-11.11q-.56-2.02-.43-4.19c.12-1.98-.65-4.04-.93-6.13q-.87-6.57-2.01-12.56-7.51-36.75-25.56-68.96-.27-.48.1-1.11z" fill="#004b6f"/><path d="m96.5 163.27a.77.77 0 0 1 -.77-.77v-11.84a15.12 14.69 0 0 1 15.12-14.69h271.48a15.12 14.69-0 0 1 15.12 14.69v11.84a.77.77 0 0 1 -.77.77z" fill="#ffcd00"/><path d="m109.76 353.75c-6.23.01-12.07-4.32-13.32-10.27q-.62-2.93-.61-9.12.14-72.9-.01-143.2 0-.67.68-.67h300.21q.49 0 .49.49.09 71.58.06 143.07-.01 9.07-1.13 11.45c-2.64 5.63-7.68 8.32-13.71 8.32q-135.74-.15-272.66-.07zm163.8284-132.637a13.45 13.45 0 0 0 -9.7397-16.3384l-.4653-.1178a13.45 13.45 0 0 0 -16.3385 9.7397l-27.5333 108.8105a13.45 13.45 0 0 0 9.7397 16.3384l.4653.1178a13.45 13.45 0 0 0 16.3385-9.7397zm-113.4884 50.817q18.97-14.17 39.28-29.26 4.6-3.42 5.74-8.53c2.2-9.93-7.07-18.44-16.67-16q-3 .76-7.77 4.34-26.76 20.12-50.93 37.98-6.85 5.07-6.46 12.04.37 6.61 5.46 10.42 29.04 21.74 54.76 40.8c5.42 4.01 12.87 3.66 17.76-1.07 6.23-6.01 5.21-15.8-1.43-20.75q-20.23-15.08-39.74-29.58a.25.24-45.6 0 1 0-.39zm173.05.31q-19.52 14.56-39.72 29.63c-8.32 6.2-7.46 19.08 2.28 23.38q7.52 3.32 14.78-2.09 28.19-21.04 52.85-39.3c8.01-5.93 9.1-16.65.67-22.94q-24.08-17.94-54.34-40.45c-8.57-6.38-20.36-1.15-21.81 9.05q-1.1 7.79 6 13.13 19.27 14.49 39.29 29.27a.2.2 0 0 1 0 .32z" fill="#f1f2f2"/><rect height="139.14" rx="13.45" transform="matrix(.96944535 .24530739 -.24530739 .96944535 246.55 272.16)" width="27.38" x="-13.69" y="-69.57"/><path d="m160.1 271.93a.25.24-45.6 0 0 0 .39q19.51 14.5 39.74 29.58c6.64 4.95 7.66 14.74 1.43 20.75-4.89 4.73-12.34 5.08-17.76 1.07q-25.72-19.06-54.76-40.8-5.09-3.81-5.46-10.42-.39-6.97 6.46-12.04 24.17-17.86 50.93-37.98 4.77-3.58 7.77-4.34c9.6-2.44 18.87 6.07 16.67 16q-1.14 5.11-5.74 8.53-20.31 15.09-39.28 29.26z"/><path d="m333.15 272.24a.2.2 0 0 0 0-.32q-20.02-14.78-39.29-29.27-7.1-5.34-6-13.13c1.45-10.2 13.24-15.43 21.81-9.05q30.26 22.51 54.34 40.45c8.43 6.29 7.34 17.01-.67 22.94q-24.66 18.26-52.85 39.3-7.26 5.41-14.78 2.09c-9.74-4.3-10.6-17.18-2.28-23.38q20.2-15.07 39.72-29.63z"/></svg>